<svg xmlns="http://www.w3.org/2000/svg" viewBox="0 0 560 560" fill="none" shape-rendering="auto"><metadata xmlns:rdf="http://www.w3.org/1999/02/22-rdf-syntax-ns#" xmlns:xsi="http://www.w3.org/2001/XMLSchema-instance" xmlns:dc="http://purl.org/dc/elements/1.1/" xmlns:dcterms="http://purl.org/dc/terms/"><rdf:RDF><rdf:Description><dc:title>Notionists</dc:title><dc:creator>Zoish</dc:creator><dc:source xsi:type="dcterms:URI">https://heyzoish.gumroad.com/l/notionists</dc:source><dcterms:license xsi:type="dcterms:URI">https://creativecommons.org/publicdomain/zero/1.0/</dcterms:license><dc:rights>Remix of „Notionists” (https://heyzoish.gumroad.com/l/notionists) by „Zoish”, licensed under „CC0 1.0” (https://creativecommons.org/publicdomain/zero/1.0/)</dc:rights></rdf:Description></rdf:RDF></metadata><mask id="viewboxMask"><rect width="560" height="560" rx="0" ry="0" x="0" y="0" fill="#fff" /></mask><g mask="url(#viewboxMask)"><rect fill="#ffffff" width="560" height="560" x="0" y="0" /><g transform="translate(136 328)"><path d="M188.2 86.4c-26.7 11.3-52.6 12.5-78-.5-6.5-3.2-12-2.4-18.7.7-3-9.6-3.7-18 3-25.5 2-2.1 3.9-5 7.4-3.7 3.1 1 5 4 4.2 7-2 7 3.5 7.8 7.4 9.7 26.8 13.6 52.6 8.7 78.1-4.1 4-2 4-5 3.7-8.6-.3-3.7.8-7 5.3-7.2 4.5-.2 7.6 2.4 7.9 6.7.5 7.1 0 14.3 0 22.8a22 22 0 0 0-20.3 2.7Z" fill="#000"/></g><g transform="translate(246 125)"><path d="M71.5 185c5-15.6-6-26.3-10.4-38.5-8.6-23.7-16.2-47.4-15-73 .2-4.6-.7-10.7 6-10.6 5.1.2 7.9 5.2 8 10 1.6 35.5 14.5 67.7 29 99.3 2.7 6 2.1 11.1-1.1 16.9-8.5 15.1-22.3 20-38.2 20.5-8.7.3-15-4.5-18.2-15.2 14-1.8 29.4 4.8 39.9-9.4Z" fill="#000"/></g><g transform="translate(-45 137)"><path d="M407.4 122.5c13 .3 25.4 1.1 37.6 2.5 3 .4 5 3.3 5 6.7 0 3.3-1.7 5.6-4.7 7-11.2 4.8-22 8.2-33.7.2-6.5-4.5-9-8.7-4.2-16.4ZM247.6 117c7 0 7.8 3.8 7 8.5-2 10.2-20 22.4-30.4 20.5-5.9-1-10.5-4-10.7-10.5-.2-6.7 4.8-8.2 10.3-8.4 9-.3 15.8-5.2 23.8-10ZM215.1 76.6c5-12 9-29.4 24.1-22.5 20.7 9.4 13.9 30.7 9.7 47.4-1.6 6.3-14.5 15.9-18.3 14.3-16.3-6.8-19.2-21.7-15.5-39.2ZM442 113.4c-8.6 7.5-17 7.6-22.2-1.5-9-16-8.6-32.8 3.3-47.2 2.5-3 13.8-3.6 16.3-1 14 15 14.6 31.8 2.6 49.7Z" fill="#000"/></g><g transform="translate(-45 137)"><path d="M266 18.1A80.2 80.2 0 0 1 301 62.8c15.8-3 30.7-5.8 46.4 2.2a97.5 97.5 0 0 1 19.8-34.7C382.8 14 418 2 443.5 10.5c26.2 8.8 44.9 26.2 52.7 51.2a75.5 75.5 0 0 1-11.3 67.8c-35.8 51-110.3 37.5-132.4-14-3.6-8.2-5.7-16.9-6.3-25.8-.6-10.5-5.3-15.8-15-17.3-11.9-1.8-21.2 1.8-25.4 13.9-3.3 9.1-3.2 19-7.4 28.2-13.3 29-37.9 47.4-71.8 47.1-28.5-.2-61.4-18-69-48.8-8.4-34-35.5-41.3-62.4-50.6-22.8-7.9-45.5-16-68.2-24-4.7-1.7-7.3-5.4-5.5-10 2.2-5.7 6.8-3.4 10.8-2C66.4 38.8 100.7 51 134.7 63.8c11.8 4.4 18.5-3.2 22.6-10.7 23.3-42.4 58.4-55.5 103-37.2 1.7.6 3.3 1.2 5.7 2.3Z" fill="#000"/></g><g transform="translate(119 114)"><g fill="#000"><path d="M102.1 42.8c-8.7-12.1-25.2-16-38.8-12.5-12 3.2-21.7 11-33.6 14.4-4 1.1-7.5 2.7-9.7-2.1-1.9-3.9-1.5-7.4 2.2-10.3C41 18 75.8 5.4 100.9 19.4a45.7 45.7 0 0 1 15 15c3.3 4.7 4.5 11.6 0 15.1-5.9 4.6-10-1.2-13.8-6.7ZM288 48.8c-9.7-6.5-18.9-7.3-28-.8-3.2 2.3-6.7 4.8-10 .8-3.3-4.1-2.4-8.6 1.3-12.6 5.6-6.1 13.2-7.1 20.8-8a33.7 33.7 0 0 1 36.7 30c.2 4.3 0 9.1-5.2 10.3-4.7 1-8.3-1.7-10.2-5.9-1.9-4.2-3.2-8.7-5.4-13.8ZM191.6 30c5.2-6.6 8-15 14.5-20.6 2.5-2.1 4.4-5.5 8.5-3.2 3.7 2.1 4 5.9 3 9-3.1 8.6-6.7 17.1-10.7 25.4-2 4-7 5.5-11 4.2-6.6-2-5-7.9-4.4-13.9v-1Z"/><path d="M191.7 29.8c-2 4.2-3.6 8.5-5.7 12.6-1.6 3.1-4.2 5.8-8 4.6-4.6-1.4-5-5.3-4-9.3 1.2-4.1 2.5-8 4-12 2-4.7 1.5-12.4 9.3-11.3 8.4 1.3 4.4 8.4 4.4 14.4v1Z"/></g></g></g></svg>